<?xml version="1.0" encoding="utf-8"?>
<!-- Generator: Adobe Illustrator 23.1.1, SVG Export Plug-In . SVG Version: 6.00 Build 0)  -->
<svg version="1.1" id="Capa_1" xmlns="http://www.w3.org/2000/svg" xmlns:xlink="http://www.w3.org/1999/xlink" x="0px" y="0px"
	 viewBox="0 0 120 120" style="enable-background:new 0 0 120 120;" xml:space="preserve">
<style type="text/css">
	.st0{fill:none;stroke:#7468E5;stroke-width:2;stroke-miterlimit:10;}
	.st1{fill:#7468E5;}
</style>
<title>CiviConecta - iconos</title>
<circle class="st0" cx="60" cy="60" r="45"/>
<g>
	<path class="st1" d="M63.4,81.6c-0.9,0-1.8-0.4-2.5-1.1L46,65.7c-1.5-1.5-2.3-3.5-2.3-5.7c0-2.2,0.9-4.2,2.4-5.8l14.8-14.8
		c1.4-1.4,3.7-1.4,5.1,0c1.4,1.4,1.4,3.7,0,5.1L51.2,59.3c-0.4,0.4-0.4,1,0,1.4l0.1,0.1L66,75.5c1.4,1.4,1.4,3.7,0,5.1
		C65.3,81.2,64.3,81.6,63.4,81.6z"/>
</g>
</svg>
