<?xml version="1.0" encoding="utf-8"?>
<!-- Generator: Adobe Illustrator 23.1.1, SVG Export Plug-In . SVG Version: 6.00 Build 0)  -->
<svg version="1.1" id="Capa_1" xmlns="http://www.w3.org/2000/svg" xmlns:xlink="http://www.w3.org/1999/xlink" x="0px" y="0px"
	 viewBox="0 0 120 120" style="enable-background:new 0 0 120 120;" xml:space="preserve">
<style type="text/css">
	.st0{fill:none;stroke:#7468E5;stroke-width:2;stroke-miterlimit:10;}
	.st1{fill:#7468E5;}
</style>
<title>CiviConecta - iconos</title>
<circle class="st0" cx="60" cy="60" r="45"/>
<g>
	<path class="st1" d="M56.6,81.6c-0.9,0-1.8-0.4-2.5-1.1c-1.4-1.4-1.4-3.7,0-5.1l14.8-14.8c0.4-0.4,0.4-1,0-1.4L54,44.5
		c-1.4-1.4-1.4-3.7,0-5.1c1.4-1.4,3.7-1.4,5.1,0l14.8,14.8c3.1,3.1,3.2,8.1,0.2,11.3l-0.2,0.2L59.1,80.5
		C58.4,81.2,57.5,81.6,56.6,81.6z M71.4,63.2L71.4,63.2L71.4,63.2z"/>
</g>
</svg>
