<?xml version="1.0" encoding="utf-8"?>
<!-- Generator: Adobe Illustrator 23.1.1, SVG Export Plug-In . SVG Version: 6.00 Build 0)  -->
<svg version="1.1" id="Capa_1" xmlns="http://www.w3.org/2000/svg" xmlns:xlink="http://www.w3.org/1999/xlink" x="0px" y="0px"
	 viewBox="0 0 120 120" style="enable-background:new 0 0 120 120;" xml:space="preserve">
<style type="text/css">
	.st0{enable-background:new    ;}
	.st1{fill:#808080;}
</style>
<title>CiviConecta - iconos</title>
<g class="st0">
	<path class="st1" d="M94.8,75.6c-0.3,5.6-1.6,10.6-5.7,14.7c-4.1,4.1-9.1,5.4-14.7,5.7c-5.8,0.3-23.1,0.3-28.9,0
		C40,95.7,35,94.4,30.9,90.3s-5.4-9.1-5.7-14.7c-0.3-5.8-0.3-23.1,0-28.9c0.3-5.6,1.5-10.6,5.7-14.7s9.1-5.4,14.7-5.6
		c5.8-0.3,23.1-0.3,28.9,0c5.6,0.3,10.6,1.6,14.7,5.7c4.1,4.1,5.4,9.1,5.7,14.7C95.1,52.5,95.1,69.9,94.8,75.6z M88.7,61.2
		c0-5.1,0.4-16-1.4-20.6c-1.2-3.1-3.6-5.4-6.7-6.7c-4.6-1.8-15.5-1.4-20.6-1.4s-16-0.4-20.6,1.4c-3.1,1.2-5.4,3.6-6.7,6.7
		c-1.8,4.6-1.4,15.5-1.4,20.6s-0.4,16,1.4,20.6c1.2,3.1,3.6,5.4,6.7,6.7c4.6,1.8,15.5,1.4,20.6,1.4s16,0.4,20.6-1.4
		c3.1-1.2,5.4-3.6,6.7-6.7C89.1,77.2,88.7,66.3,88.7,61.2z M78,61.2c0,9.9-8,18-18,18s-18-8-18-18s8-18,18-18S78,51.3,78,61.2z
		 M71.7,61.2c0-6.4-5.2-11.7-11.7-11.7s-11.7,5.2-11.7,11.7S53.6,72.9,60,72.9S71.7,67.6,71.7,61.2z M78.7,46.7
		c-2.3,0-4.2-1.9-4.2-4.2s1.9-4.2,4.2-4.2s4.2,1.9,4.2,4.2C82.9,44.8,81,46.7,78.7,46.7z"/>
</g>
</svg>
