<?xml version="1.0" encoding="utf-8"?>
<!-- Generator: Adobe Illustrator 23.1.1, SVG Export Plug-In . SVG Version: 6.00 Build 0)  -->
<svg version="1.1" id="Capa_1" xmlns="http://www.w3.org/2000/svg" xmlns:xlink="http://www.w3.org/1999/xlink" x="0px" y="0px"
	 viewBox="0 0 120 120" style="enable-background:new 0 0 120 120;" xml:space="preserve">
<style type="text/css">
	.st0{enable-background:new    ;}
	.st1{fill:#808080;}
</style>
<title>CiviConecta - iconos</title>
<g class="st0">
	<path class="st1" d="M25,29.6c0-4.6,3.8-8.4,8.4-8.4c4.6,0,8.4,3.8,8.4,8.4c0,4.6-3.8,8.5-8.4,8.5C28.8,38.1,25,34.3,25,29.6z
		 M26.2,91.2V44.5h14.5v46.7H26.2z M80.5,91.2V68.5c0-5.4-0.1-12.4-7.5-12.4c-7.5,0-8.7,5.9-8.7,12v23.1H49.8V44.5h13.9v6.4h0.2
		c1.9-3.7,6.7-7.5,13.7-7.5C92.3,43.3,95,53,95,65.5v25.7h0H80.5z"/>
</g>
</svg>
