<svg xmlns="http://www.w3.org/2000/svg" viewBox="0 0 70 61.25"><defs><style>.cls-1{fill:#f2f2f2;}</style></defs><title>Menu - Civicon</title><g id="Capa_2" data-name="Capa 2"><g id="Capa_1-2" data-name="Capa 1"><path class="cls-1" d="M0,8.75V2.5A2.5,2.5,0,0,1,2.5,0h65A2.5,2.5,0,0,1,70,2.5V8.75a2.5,2.5,0,0,1-2.5,2.5H2.5A2.5,2.5,0,0,1,0,8.75Zm0,25V27.5A2.5,2.5,0,0,1,2.5,25h65A2.5,2.5,0,0,1,70,27.5v6.25a2.5,2.5,0,0,1-2.5,2.5H2.5A2.5,2.5,0,0,1,0,33.75Zm0,25V52.5A2.5,2.5,0,0,1,2.5,50h65A2.5,2.5,0,0,1,70,52.5v6.25a2.5,2.5,0,0,1-2.5,2.5H2.5A2.5,2.5,0,0,1,0,58.75Z"/></g></g></svg>