<?xml version="1.0" encoding="utf-8"?>
<!-- Generator: Adobe Illustrator 23.1.1, SVG Export Plug-In . SVG Version: 6.00 Build 0)  -->
<svg version="1.1" id="Capa_1" xmlns="http://www.w3.org/2000/svg" xmlns:xlink="http://www.w3.org/1999/xlink" x="0px" y="0px"
	 viewBox="0 0 120 120" style="enable-background:new 0 0 120 120;" xml:space="preserve">
<style type="text/css">
	.st0{fill:#F5CF57;}
	.st1{enable-background:new    ;}
	.st2{fill:#FFFFFF;}
</style>
<title>CiviConecta - iconos</title>
<path class="st0" d="M19,5h82c7.7,0,14,6.3,14,14v82c0,7.7-6.3,14-14,14H19c-7.7,0-14-6.3-14-14V19C5,11.3,11.3,5,19,5z"/>
<g class="st1">
	<path class="st2" d="M57.1,89.8c-1.7,1.7-4.5,1.7-6.2,0l-4.2-4.2c-1.7-1.7-1.7-4.5,0-6.2l17.8-17.8L46.7,43.9
		c-1.7-1.7-1.7-4.5,0-6.2l4.1-4.2c1.7-1.7,4.5-1.7,6.2,0l25,25c1.8,1.7,1.8,4.5,0,6.3L57.1,89.8z"/>
</g>
</svg>
